<svg xmlns="http://www.w3.org/2000/svg" xmlns:xlink="http://www.w3.org/1999/xlink" viewBox="0 0 2616.48 509.61"><defs><style>.cls-1{fill:url(#未命名漸層_105);}.cls-2{fill:url(#未命名漸層_107);}</style><linearGradient id="未命名漸層_105" x1="1660.77" y1="254.8" x2="2616.48" y2="254.8" gradientUnits="userSpaceOnUse"><stop offset="0" stop-color="#b7d6c2"/><stop offset="1" stop-color="#fff"/></linearGradient><linearGradient id="未命名漸層_107" y1="256.04" x2="748.4" y2="256.04" gradientUnits="userSpaceOnUse"><stop offset="0.01" stop-color="#fff"/><stop offset="0.99" stop-color="#f2949c"/></linearGradient></defs><title>資產 3</title><g id="圖層_2" data-name="圖層 2"><g id="圖層_4" data-name="圖層 4"><path class="cls-1" d="M2122.41,395.69c8.72,8.2,14.67,19.21,12.15,30.09-2.9,12.5-16.37,22.84-14.26,35.49,1.92,11.46,15.7,18,28.21,20.91,71.78,16.92,153-21.44,219.74,7.73,12.53,5.47,23.94,13.18,37.24,16.9,15.08,4.22,31.33,3,46.92.83a432.19,432.19,0,0,0,82.93-19.83c16-5.57,32.27-12.48,43-24.51,10.15-11.35,14.29-26,18.18-40.12,7.49-27.31,13.64-59.83-7.68-80.59-15.91-15.49-43.2-19.49-56.62-36.78,34.42-10.47,73.7-25.44,82.61-57,6.85-24.29-8.66-50.54-31.77-64.76s-52.19-18.32-80.18-18.31c-18.85,0-37.82,1.7-56.49-.74s-37.62-9.74-48.19-23.77c-5.22-6.95-8.09-16-4.48-23.74,2-4.3,5.84-7.72,10-10.59,39.07-27.18,96.94-7.83,144.5-20.14,6.88-1.78,13.92-4.51,17.94-9.81,6.78-8.94,1.85-22-7.57-28.79s-21.93-8.92-33.9-10.45c-55.41-7-111.58-6.65-167.51-7.59-11.71-.2-23.61-.49-34.77-3.71a62,62,0,0,1-32.14-21.72A687.13,687.13,0,0,0,2178.59.74c-21.16,1-44.69,4.08-57.71,19-13.67,15.67-9.83,39.69,4,55.34s35.33,24.31,56.79,29.62c15,3.72,31.95,7,40.46,18.71,10.26,14,1.92,34.27-13.52,43.67s-35.43,10.33-54.06,8.78c-50.81-4.23-102.06-24.25-151.17-12.06-25.76,6.39-51.27,29.72-40.57,51.74,11.51,23.68,49.45,20.82,75.8,31.32-85.18,34.5-184.71-4.06-277.87,3.84-29.43,2.5-59.75,10.48-80.19,29.56s-27.41,51.35-9.47,72.48c19.15,22.54,55.69,24,87.23,23.42l257.5-4.76c35.71-.66,75-.25,102.2,20.54A55.59,55.59,0,0,1,2122.41,395.69Z"/><path class="cls-2" d="M155.25,100.07A493.57,493.57,0,0,1,373,61c12.33.62,25,1.8,36,7.41s20.06,16.64,19.87,29c-.25,15.31-12.71,34.24-.38,43.31,3.34,2.46,7.66,3.08,11.79,3.38,18.82,1.39,37.62-2.2,56.07-6.18,76.6-16.49,155.3-39.89,231.9-23.41,5.91,1.27,12.14,3,16.16,7.51,9.1,10.23,1,26.59-9.18,35.72-44,39.3-114.64,28.36-164.85,59.32-2.67,1.64-5.38,3.52-6.81,6.32-3.31,6.48,2.3,14.62,9.25,16.78s14.43.23,21.49-1.53a416,416,0,0,1,98.11-12.25c9.08,0,19.42.8,25,8,9,11.44-1.46,27.9-12.77,37-41.55,33.42-97.7,41-150.87,45s-108.63,6.08-155.48,31.54c-3.73,2-7.7,4.57-8.87,8.66-1.75,6.13,3.61,11.86,8.74,15.65a124.55,124.55,0,0,0,31.5,16.88c5.47,2,11.77,4.21,13.85,9.65,3.46,9-7.45,16.74-16.7,19.57C369.7,435.8,307,417.77,248.6,430.66c-24.1,5.32-47,15.82-71.36,19.52a131.87,131.87,0,0,1-80.68-13.66C69.16,422,45.72,390.14,57.4,361.44c4.6-11.27,13.81-19.91,22.75-28.17l59.36-54.82L27,215.46c-14.86-8.32-32.17-23.07-25.51-38.75,2.72-6.41,9-10.58,15.18-13.73a103.38,103.38,0,0,1,52.23-10.93c13.31.75,26.5,4.08,39.81,3.32s27.57-6.9,32.7-19.2-4.74-29.67-17.9-27.58l46-12.09"/></g></g></svg>