<svg xmlns="http://www.w3.org/2000/svg" viewBox="0 0 523.71 799.57"><defs><style>.cls-1{fill:#fff0e9;}.cls-2{fill:#f24162;}.cls-3{fill:#f1eff0;}.cls-4{fill:#f2949c;}.cls-5{fill:#f24472;}</style></defs><title>資產 1</title><g id="圖層_2" data-name="圖層 2"><g id="圖層_3" data-name="圖層 3"><path class="cls-1" d="M423.41,589.65c2.75-9.73,13.19-16.63,23.21-15.35,6.83.87,12.75,4.94,18.59,8.59a190.94,190.94,0,0,0,49.29,21.78,14.86,14.86,0,0,1,5.72,2.49c1.61,1.35,2.57,3.73,1.62,5.6a6.31,6.31,0,0,1-3.74,2.7c-9.57,3.48-20.21,1.86-30-.85s-19.43-6.49-29.57-7.32c-3,1-3,5.42-1.1,7.89s4.9,3.85,7,6.12,3,6.44.42,8.21c-1.69,1.17-4,.68-6,0a84,84,0,0,1-23.48-12.49c-5-3.67-9.92-7.94-12.37-13.66s-1.74-13.19,3.13-17.06"/><path class="cls-2" d="M424.86,590a20.71,20.71,0,0,1,16.4-14.17c9.26-1.53,17.32,4.73,24.74,9.27a193.06,193.06,0,0,0,26.23,13.36q6.81,2.85,13.83,5.16,3.56,1.17,7.16,2.21c2.09.59,4.57,1,6.21,2.58,1.42,1.35,1.85,3.48.07,4.69s-4.37,1.76-6.52,2.18a42.63,42.63,0,0,1-14.56,0c-10.06-1.53-19.51-5.44-29.37-7.81-2.43-.58-4.88-1.06-7.35-1.4-2.11-.28-4.09-.73-5.67,1-2.24,2.49-1.63,6.61.32,9.07,2.38,3,7.07,4.52,8.31,8.36.46,1.44.46,3.36-1.22,4-1.93.69-4.46-.52-6.25-1.17a82.2,82.2,0,0,1-24.74-14.54c-6.05-5.13-11.64-13-8.35-21.24a10.36,10.36,0,0,1,3.13-4.21c1.49-1.23-.64-3.34-2.12-2.12-6.93,5.69-5.78,16.22-1.11,22.91a44.24,44.24,0,0,0,10.33,9.92,97.55,97.55,0,0,0,13.16,8.27q3.43,1.77,7,3.19a26.59,26.59,0,0,0,7.06,2.11,5.74,5.74,0,0,0,5.5-2.36,6.6,6.6,0,0,0,.52-5.36c-1.35-4.59-5.93-6-8.76-9.39a4.94,4.94,0,0,1-1.08-4.45c.17-.55.5-1.2,1.11-1.31a7.42,7.42,0,0,1,1.74.19c.79.1,1.58.22,2.37.35,10.83,1.82,21,6.28,31.74,8.39a52.68,52.68,0,0,0,15.59,1,34.88,34.88,0,0,0,7.76-1.67c2-.68,4-1.61,5.07-3.54a5.92,5.92,0,0,0-.66-6.08,10.63,10.63,0,0,0-5.76-3.68c-5-1.6-10.06-3-15-4.77a189.81,189.81,0,0,1-29.1-13.44c-4.5-2.56-8.79-5.47-13.28-8-4.24-2.43-8.82-4.45-13.75-4.81-8.31-.59-16.64,4-21.08,10.95a21.3,21.3,0,0,0-2.52,5.61c-.55,1.85,2.35,2.65,2.89.79Z"/><path class="cls-2" d="M198.06,175.9V175a1.72,1.72,0,0,0-.44-1.06,1.24,1.24,0,0,0-.48-.31,1.27,1.27,0,0,0-.58-.13l-.4.06a1.57,1.57,0,0,0-.66.38l-.24.31a1.5,1.5,0,0,0-.2.75v.92a1.06,1.06,0,0,0,.13.58,1.14,1.14,0,0,0,.31.48,1.08,1.08,0,0,0,.48.31,1.15,1.15,0,0,0,.58.13l.4-.05a1.49,1.49,0,0,0,.66-.39l.23-.3a1.48,1.48,0,0,0,.21-.76Z"/><path class="cls-3" d="M216.89,223.37a5.24,5.24,0,0,0-3.35-1.65c-5.45-1.14-3.28-2.95-8.83-2.5-.05.29-7.91,2,1.15.79l1,2.68c-11.14,1.39-11.36,1.53-13.27,1.94a3.8,3.8,0,0,1-1.15.28c-8.34,2.27-15.46,9.35-17,17.93-1.42,7.88,1.36,15.84,4.1,23.36,1.48,4.05,3,8.21,5.9,11.41s7.48,5.25,11.58,3.91c8.32-2.73,7.33-14.47,8.44-23.16,1.38-10.8,8.43-20,11.56-30.41C217.5,226.43,217.83,224.65,216.89,223.37Z"/><path class="cls-2" d="M218,222.31c-1.25-1.5-3.08-1.77-4.85-2.24a10.89,10.89,0,0,1-3.18-1.49,6.46,6.46,0,0,0-3.3-.92,5.43,5.43,0,0,0-2.67.27c-.6.35-.61.94-.12.08.1-.17.32-.12,0,0-1.06.33-3,.59-3.63,1.64-.72,1.28.45,2.3,1.65,2.32a28.23,28.23,0,0,0,4.4-.5l-1.84-1,1,2.68,1.45-1.9c-6.92.87-14.46,1.17-20.66,4.7a25.42,25.42,0,0,0-10.7,11.71c-2.65,6.07-2.24,12.77-.64,19.07.86,3.37,2,6.66,3.23,9.93a53.13,53.13,0,0,0,3.64,8.41c2.88,4.95,8.16,9.23,14.22,8.29,10.4-1.6,10-14.89,10.78-22.79.63-6.82,3.31-12.91,6.23-19,1.51-3.16,3-6.31,4.28-9.58,1.07-2.78,2.73-6.48.92-9.3-1-1.62-3.64-.12-2.59,1.52.68,1.06.33,2.29,0,3.42-.43,1.47-1,2.92-1.53,4.35-1,2.61-2.27,5.15-3.48,7.69-2.45,5.12-5,10.32-6.13,15.9-.92,4.42-.88,9-1.45,13.42-.45,3.56-1.27,8-4.42,10.19-4.34,3-9.82.36-12.74-3.36a29,29,0,0,1-4-7.58c-1.09-2.85-2.13-5.73-3-8.64-1.86-5.88-3.22-12.32-1.43-18.39a21.78,21.78,0,0,1,8.49-11.49c6.14-4.25,13.82-4.55,21-5.45.87-.1,1.83-.88,1.45-1.9l-1-2.68a1.56,1.56,0,0,0-1.84-1.05c-1,.13-1.91.26-2.87.35-.22,0-.46,0-.68,0-.06,0-.16,0-.21,0a2.13,2.13,0,0,1,.86.39l.44,1.07c0-.19-.63,1.53-.6,1.17,0,.2-.36.07-.09,0a1.91,1.91,0,0,0,.44-.15l1.18-.36c.73-.23,1.66-.42,2.07-1.13l-1.29.74a7.43,7.43,0,0,1,3.15.14,14.9,14.9,0,0,1,1.45.9,11.44,11.44,0,0,0,3,1.21c1.26.33,2.64.4,3.53,1.46C217.06,225.91,219.18,223.78,218,222.31Z"/><path class="cls-1" d="M219.87,182.64a99.38,99.38,0,0,0-16.07,10.82c-5.47,4.51-10.88,10.82-9.66,17.81.47,2.73,1.91,5.16,3.07,7.67,4.1,8.95,4.54,19.09,4.91,28.93.32,8.43,2,23.62-1.41,31.35,13.22-10.86,24.57-28.73,36.76-40.74,4.57-4.5,9.23-9.36,11-15.53,2.72-9.75-2.49-19.69-5.72-29.29a76.88,76.88,0,0,1-4-23.91c-3.75-2.14-8.41.9-10.94,4.39s-4.43,7.82-8.3,9.73"/><path class="cls-2" d="M219.11,181.35a86.06,86.06,0,0,0-19.36,13.73c-5.16,5.08-9.09,12-6.28,19.3.7,1.83,1.63,3.54,2.44,5.32a39.54,39.54,0,0,1,2.06,5.7A64.14,64.14,0,0,1,200,237.31c.61,6.84.8,13.74,1.1,20.6a106.78,106.78,0,0,1,0,11,28.32,28.32,0,0,1-1.77,9.52,1.51,1.51,0,0,0,2.36,1.82c12.6-10.4,21.62-24.36,32.56-36.36,5.36-5.87,11.92-11,14.9-18.65,3.27-8.35.36-17.22-2.6-25.18A113.35,113.35,0,0,1,242,185.37a75.92,75.92,0,0,1-1.76-15.62,1.51,1.51,0,0,0-.74-1.3c-4.35-2.29-9.16.33-12.07,3.75s-4.51,8.2-8.69,10.38c-1.71.89-.2,3.48,1.52,2.59,3.72-1.94,5.74-5.68,8-9,1.91-2.89,5.89-7.11,9.74-5.09l-.75-1.29a80.5,80.5,0,0,0,4.8,26.43c2.83,7.86,7.09,16.51,5.3,25.08-1.69,8.06-8.37,13.38-13.74,19.08S223.11,252.52,218,258.71c-5.66,6.88-11.47,13.76-18.36,19.45L202,280c2.36-5.54,2.39-11.92,2.28-17.84-.12-6.4-.55-12.82-.86-19.21-.4-7.91-1.22-16-4.3-23.34-1.45-3.44-3.75-6.75-3.65-10.62.09-3.44,1.91-6.64,4.06-9.23a52.23,52.23,0,0,1,9.48-8.45,100.2,100.2,0,0,1,11.62-7.35c1.69-.92.18-3.52-1.52-2.59Z"/><path class="cls-3" d="M277.69,218.61C272.57,209,259.17,203.1,247,205.12c-17.31,2.85-27.21,18.34-32.22,32.69s-8.79,34.57-21.53,44.91c29.27-6.07,56.79-24.33,76.57-43.62,4.37-4.26,8.55-9.1,9.23-14.71s.17-7.9-11.73-15.76"/><path class="cls-2" d="M279,217.85c-4.32-8-13.16-12.88-21.93-14.21a34,34,0,0,0-25.87,6.81c-6.93,5.32-11.91,12.82-15.42,20.73s-5.56,16.48-8.35,24.71c-3.2,9.47-7.34,19.27-15.26,25.77-1.25,1,.13,2.79,1.46,2.51,19-4,36.92-12.78,52.82-23.85a192.36,192.36,0,0,0,21.84-17.7c6-5.6,12.29-11.86,12.44-20.58a9.81,9.81,0,0,0-2.45-6.63c-2.75-3.3-6.68-5.73-10.22-8.07-1.62-1.07-3.12,1.53-1.52,2.59a49.17,49.17,0,0,1,9,6.94,9,9,0,0,1,1.69,2.4,6.73,6.73,0,0,1,.46,2c.39,7.83-5.73,13.69-11,18.65A177.64,177.64,0,0,1,222.35,271a128.36,128.36,0,0,1-29.54,10.26l1.46,2.5c6.74-5.52,10.87-13.46,14-21.44s5.18-16.35,8-24.44c5.5-15.56,17.2-31.55,35.32-31.68,9.57-.06,20.06,4.46,24.77,13.15.92,1.7,3.51.18,2.59-1.52Z"/><path class="cls-3" d="M272.42,349.28c-5.92,55.37-.61,111.25,4.71,166.68,1.28,13.36,2.91,27.6,11.5,37.92,9.79,11.77,28.51,19.1,28.09,34.41-.32,11.33-12.11,20.75-10.07,31.91.69,3.78,2.94,7.1,5.42,10,9.5,11.26,25.4,19,39.09,13.51,14.77-5.88,24.37-25.42,40.12-23.35,3.8.51,7.38,2.33,11.22,2.42s7.59-1.63,10.78-3.84c14.54-10.08,20.74-30.39,37-37.28,11.4-4.81,24.41-1.57,36.76-2.24s26.75-9.07,25.15-21.34c-.46-3.58-2.27-6.82-4.05-10l-42.66-75.52c-7.37-13.05-14.78-26.14-23.82-38.08-11.89-15.69-26.44-29.17-38.9-44.4-9.16-11.2-17.15-23.31-25-35.45q-34.38-53-66.21-107.67c-4.5-7.73-9.27-15.8-16.92-20.42-5.06-3.06-11-4.34-16.79-5.32-10.76-1.82-22-2.73-32.44.53-8.32,2.61-15.61,7.73-22.42,13.18a221.67,221.67,0,0,0-78.41,130.26c-7,13.5-14.63,29-9.82,43.59,1.85,5.6,5.41,10.47,9.18,15,14.09,16.9,31.82,30.46,46.06,47.23,23.66,27.89,36.56,63.27,57.54,93.22,5.82,8.29,12.56,16.42,21.71,20.78,13.91,6.63,30.3,3.31,45.33-.14"/><path class="cls-2" d="M270.92,349.28c-3,28.64-3.12,57.5-1.72,86.24,1.38,28.42,3.85,56.86,6.9,85.14,1.21,11.23,3.13,23.09,10,32.4,5.74,7.79,14.24,12.78,21.14,19.42,3.18,3.06,6.16,6.61,7.38,10.94,1.37,4.83.11,9.63-2,14.06-4.22,8.94-10.9,17.84-5.75,27.92,4.79,9.36,15,16.89,24.83,20a31.09,31.09,0,0,0,15.37,1.07A32.09,32.09,0,0,0,360,640.32c7.3-5.45,13.39-13.24,21.84-17,5-2.2,9.52-1.56,14.61-.12a20,20,0,0,0,8.58.93,21.53,21.53,0,0,0,8.37-3.45c16.89-11.11,22.7-36.09,44.66-39.62,11.92-1.91,24.23,1.86,36-1.23,8.37-2.19,17.89-7.92,19.5-17.16,1-5.58-1.47-10.54-4.13-15.28q-5.28-9.35-10.57-18.69l-21.54-38.13c-6.88-12.18-13.6-24.48-20.82-36.47a227.24,227.24,0,0,0-23.64-32.61c-8.79-10-18.21-19.51-26.81-29.71-8.91-10.56-16.68-22-24.23-33.54q-23.3-35.7-45.37-72.2-11-18.19-21.76-36.56c-5.86-10-11.73-21.15-22.94-26C286,221,279.64,220,273.42,219.11a77.51,77.51,0,0,0-19.66-.54c-12.73,1.52-23.12,8.32-32.87,16.22a220.4,220.4,0,0,0-46,51.39,223.49,223.49,0,0,0-28.14,63q-1.14,4.21-2.1,8.48c-.64,2.8-.89,5.95-2.22,8.52a128.43,128.43,0,0,0-7.86,17.61c-2,5.86-3.24,12.14-2.69,18.34a35,35,0,0,0,6.48,16.94c7.28,10.51,16.91,19.44,26.12,28.23,9.46,9,19,18,27.21,28.21,15.69,19.55,26.56,42.35,38.79,64.09,6,10.61,12.22,21.2,19.7,30.83s16.72,17.28,29,19.3c12,2,24.15-.64,35.82-3.31,1.88-.43,1.08-3.32-.8-2.89-12,2.74-24.81,5.63-37,2.75s-20.7-12-27.7-21.86c-14-19.77-24.32-41.84-36.52-62.71a228,228,0,0,0-20-29.44c-8.06-9.86-17.38-18.58-26.57-27.36s-18.75-17.5-25.8-28a31.48,31.48,0,0,1-5.78-17.68c0-6.41,1.8-12.67,4.15-18.58,1.22-3.05,2.62-6,4.08-9,1.32-2.66,2.85-5.09,3.44-8q1.65-8.24,3.94-16.32a217.77,217.77,0,0,1,11.87-32.05A222.09,222.09,0,0,1,199.59,259a215.13,215.13,0,0,1,24.47-23,85.61,85.61,0,0,1,15.41-10.24,46.69,46.69,0,0,1,18.93-4.62,95.47,95.47,0,0,1,20.16,1.72c6.07,1.07,12.21,2.58,17.27,6.27,4.68,3.41,8.13,8.22,11.16,13.08,3.38,5.44,6.51,11,9.76,16.56q21.08,35.78,43.26,70.88c14.22,22.5,28.08,45.72,45.48,66,8.52,9.93,17.75,19.22,26.31,29.11a224.09,224.09,0,0,1,23,32.19c14.24,23.85,27.48,48.33,41.14,72.51l10.36,18.33c2.78,4.93,5.84,10.2,4,16-2.87,8.89-14.05,13.47-22.6,14.09-12.18.89-24.9-2.53-36.68,1.93-8.93,3.37-15.16,10.65-20.76,18.07-5.86,7.78-11.61,16.8-20.47,21.48a14.34,14.34,0,0,1-10,1.55c-2.83-.62-5.54-1.69-8.43-2.05a20.82,20.82,0,0,0-11.82,2.26c-8.1,4.05-14,11.41-21.16,16.74-4,2.93-8.36,5.26-13.31,5.92a30,30,0,0,1-15.54-2.41,43.63,43.63,0,0,1-13.51-9.19c-3.91-3.87-8-8.77-8-14.55,0-5,2.6-9.62,4.89-13.92s4.57-8.55,5.23-13.34c1.23-8.92-4.16-16.09-10.46-21.71-7.22-6.44-15.84-11.7-20.89-20.19-5.89-9.87-7-21.77-8.09-33-1.35-14-2.68-28-3.84-42.06-2.3-27.88-3.89-55.86-3.32-83.84.28-13.48,1.07-26.95,2.49-40.36.2-1.91-2.8-1.9-3,0Z"/><path class="cls-1" d="M103.79,104.8q2.08,18,5.72,35.71c1.82,8.87,4,17.8,8.22,25.81,7.42,14,20.52,24,33.21,33.54,10,7.52,21.3,15.42,33.77,14.3,6.25-.56,12.06-3.39,17.49-6.53a139.08,139.08,0,0,0,44.68-41.33c13.15-19.11,21.42-43.85,13.31-65.59C251.73,78,227.1,64.47,203,62.47S155,68,132.25,76.34c-5.53,2-11.1,4.17-16,7.5a38.11,38.11,0,0,0-14.63,19.49"/><path class="cls-2" d="M102.29,104.8q1.62,13.92,4.14,27.71c1.61,8.72,3.25,17.56,6.24,25.93a65,65,0,0,0,12.23,20.78,123.16,123.16,0,0,0,17.43,15.95c6.34,5,12.76,10,19.7,14.13s14.63,7.08,22.68,6.36c8.37-.75,15.93-5.14,22.89-9.55a141.73,141.73,0,0,0,19.06-14.48C238.44,181,248.81,168.23,255.9,154c7-14,11-30,8-45.63-2.69-14-11.32-25.76-22.82-33.9a77.72,77.72,0,0,0-39.5-13.57c-18.07-1.23-36.05,2.76-53.15,8.25a246.21,246.21,0,0,0-25.15,9.19A42.5,42.5,0,0,0,105,93.06a40.4,40.4,0,0,0-4.84,9.87c-.61,1.83,2.29,2.62,2.9.8a36.78,36.78,0,0,1,12.35-17.45c6.64-5.12,15-7.73,22.76-10.52,16.35-5.84,33.27-11,50.7-11.94,14.46-.82,29,1.41,42,8,11.71,5.93,21.95,15.24,27.16,27.47,6,14,4.43,29.74-.65,43.73-5.26,14.47-14.28,27.45-24.78,38.6A137.58,137.58,0,0,1,215.51,197a113.4,113.4,0,0,1-20,12.5,32.16,32.16,0,0,1-11.81,3.24A29.6,29.6,0,0,1,172.52,211c-7.41-2.57-13.93-7.28-20.15-11.93-12-9-24.58-18.36-32.25-31.54-4.21-7.23-6.52-15.31-8.31-23.43-1.92-8.64-3.47-17.38-4.77-26.13q-1-6.57-1.75-13.17c-.22-1.9-3.22-1.92-3,0Z"/><path class="cls-4" d="M171.35,2.58C180.59-.54,190,7.24,199.71,7.67,206.66,8,213.18,4.51,220,3.23,233.71.67,247.62,7,258.6,15.6s20,19.37,31,27.93c16.75,13,37.22,20.3,57.56,26.4s41.14,11.33,60,21.08,36,24.76,43.32,44.7c5.72,15.55,3.43,36-10.75,44.54-10.6,6.42-24,4.3-36.3,2.64s-26.35-2.07-35.28,6.52c-1,1-2.11,2.09-3.48,2-1.21-.11-1.81-2-1-2.58l-3,4a5,5,0,0,1-.22-1,42.61,42.61,0,0,1-.84,4.8c-1.39,5-5.67,9-10.62,10.69a23.57,23.57,0,0,1-15.37-.52,30.29,30.29,0,0,1-14.34-10.88c-3.16-4.44-5.08-9.69-8.45-14s-9-7.59-14.15-5.85l-6.3,2.11a50.19,50.19,0,0,0-4.67,4.55c-3.91,4.28-7.65,9-12.82,11.58s-12.35,2.43-15.88-2.17c-1.91-2.49-2.41-5.74-2.85-8.85q-3.89-27.27-7.76-54.53a2.29,2.29,0,0,1-1.36-.38,8.53,8.53,0,0,1-1.78-2.16c-2-2.64-5.89-2.92-9.2-2.54s-6.78,1.19-9.87-.05c-3.71-1.48-5.71-5.43-7.39-9.06-1.23-2.66-2.45-5.32-3.68-8a7.35,7.35,0,0,1-1.41,2.75c-2.83,3.38-8.36,3.16-13,2.62-3.09-.37-6.26-.76-9-2.16a8.46,8.46,0,0,1-4.39-5c-3.51,5.92-11.9,7.35-19,7.21a106.09,106.09,0,0,1-17.86-1.86c-7.38-1.41-15.31-4.15-19-10.67-1.89-3.29-2.45-7.16-2.75-11-.12-1.46-.21-2.93-.26-4.4a65.48,65.48,0,0,0-15.81,37.33,40.36,40.36,0,0,1-17.88-11.25,22.24,22.24,0,0,1-5.24-8.58c-1.09-3.66-.78-7.59-.15-11.36,4.9-29.27,27.44-52,48.94-72.41,5.17-4.92,10.64-10,17.52-11.92,5.83-1.61,12.48-.9,17.44-4.36"/><path class="cls-5" d="M171.75,4c6.93-2.18,13.82,1.67,20.32,3.67a27.34,27.34,0,0,0,10.46,1.4,54.77,54.77,0,0,0,11.13-2.63,43.08,43.08,0,0,1,11.5-2.29,37.9,37.9,0,0,1,11.26,1.4,61.06,61.06,0,0,1,20.44,10.56c12.8,9.68,22.89,22.43,36.06,31.68,12.68,8.9,27.17,14.89,41.8,19.76,29.66,9.88,61.85,15.47,87.48,34.51,11.1,8.25,20.77,19,26.07,31.94,4.52,11,5.47,24.61-.34,35.37A24.91,24.91,0,0,1,434,181.28c-7.1,2.42-14.79,2-22.13,1.2-13.06-1.45-27.69-4.74-39.84,2.18a26.16,26.16,0,0,0-3.74,2.62c-.55.46-1.05.95-1.58,1.43a5.79,5.79,0,0,1-.91.8c-.18.1-1,.25-1.08.35L362.4,188l-3,4,2.74.36a5.44,5.44,0,0,1-.21-1c-.24-1.42-2.68-1.45-2.89,0-.5,3.27-.94,6.36-3,9.08a15.7,15.7,0,0,1-6.65,5.07c-6.39,2.59-13.84,1.1-19.67-2.23s-9.46-8.14-12.55-13.85c-2.87-5.32-5.86-10.94-11.49-13.79a12.74,12.74,0,0,0-7.84-1.43,33.24,33.24,0,0,0-5.15,1.57,10.57,10.57,0,0,0-3.87,1.72,47.7,47.7,0,0,0-3.73,3.66c-2.2,2.36-4.27,4.85-6.59,7.09-4.09,4-9.49,7.31-15.42,5.92-6.91-1.62-7.16-9.1-8-14.9q-3.63-25.47-7.25-50.95a1.52,1.52,0,0,0-1.45-1.1c-1-.06-1.51-1.42-2.08-2.11a7.29,7.29,0,0,0-1.53-1.4,9.75,9.75,0,0,0-4.25-1.55c-3.62-.51-7.12.67-10.74.59-4-.08-6.37-2.61-8.17-5.89-2-3.56-3.51-7.37-5.21-11.06-.58-1.25-2.38-.76-2.75.36-1.64,5.06-7.53,4.82-11.89,4.38s-11.39-1-13-6.21a1.52,1.52,0,0,0-2.74-.36c-2.94,4.72-9,6.08-14.16,6.4a85.35,85.35,0,0,1-20.66-1.67c-5.43-1-11.29-2.59-15.5-6.38-5.15-4.66-5.54-11.75-5.79-18.26A1.52,1.52,0,0,0,125.41,83a67.83,67.83,0,0,0-16.25,38.39l1.9-1.45a39,39,0,0,1-14.48-8.15c-4.38-3.93-8.06-8.75-8.25-14.86-.17-5.5,1.29-11.19,2.94-16.4A83.94,83.94,0,0,1,97.52,66c10.21-18.88,26.08-34.24,41.61-48.76,4.54-4.25,9.51-8.49,15.69-10,5.79-1.45,12.06-.94,17.23-4.37,1.6-1.06.1-3.66-1.52-2.59-4.89,3.25-11,2.68-16.51,4.07S143.7,9.15,139.45,12.9A313.22,313.22,0,0,0,115.1,37c-7.58,8.34-14.63,17.29-20,27.21a90.11,90.11,0,0,0-6.51,15c-1.76,5.42-3.25,11.33-3.23,17.07.05,13.3,13.38,23,24.94,26.58a1.52,1.52,0,0,0,1.9-1.45,64.28,64.28,0,0,1,15.37-36.27L125,84.1c.21,5.64.48,11.88,3.62,16.78,2.63,4.1,6.84,6.71,11.31,8.43,5.34,2.06,11.16,2.92,16.82,3.55s11.35,1,16.93.14c5.12-.79,10.19-2.93,13-7.48l-2.74-.35c2,6.74,9.85,7.81,15.85,8.41s12.66,0,14.79-6.58l-2.74.36c1.8,3.91,3.41,8,5.6,11.75,1.85,3.12,4.46,5.78,8.14,6.47,4,.74,7.85-.79,11.81-.5a6.39,6.39,0,0,1,4.92,2.35c1.16,1.55,2,2.7,4.1,2.83l-1.45-1.1q3.44,24,6.85,48.07c.87,6.15.8,14.24,6.5,18.15,4.32,3,10.33,2.59,14.91.44,6.19-2.9,10.27-8.66,14.9-13.45,1.18-1.22,2.33-2.59,3.95-3.18,1.31-.48,2.65-.89,4-1.33a9.82,9.82,0,0,1,6.74-.18c6.75,2.36,9.62,9.51,12.87,15.24A33.52,33.52,0,0,0,329,206.33c6.57,3.49,14.75,4.86,21.78,1.89a18.72,18.72,0,0,0,7.59-5.81c2.36-3.08,3-6.46,3.58-10.21H359a5.83,5.83,0,0,0,.21,1,1.52,1.52,0,0,0,2.74.36l3-4c1-1.37-1.19-3-2.35-1.81-1.92,2-.07,5.31,2.57,5.13a6.31,6.31,0,0,0,3.67-2,26,26,0,0,1,4.26-3.33c6.19-3.7,13.7-4.3,20.75-4,14.8.61,30.72,6.13,44.81-.95,11.64-5.84,16.48-19.05,16.21-31.44-.29-13.74-6.66-26.53-15.37-36.9C418.38,89,385.68,79.64,355.32,70.77c-16-4.67-32-9.52-46.9-17.15A111.67,111.67,0,0,1,287.65,40c-6.59-5.52-12.57-11.73-18.86-17.58C257.29,11.72,243.35,1.48,227,1.16a39.68,39.68,0,0,0-11.66,1.68C211.2,4,207.12,5.63,202.84,6.07c-7.8.81-14.59-3.52-22-5.14a19,19,0,0,0-9.91.21c-1.83.57-1,3.47.8,2.89Z"/><path class="cls-3" d="M115.23,495.59A128.56,128.56,0,0,0,87,459.39c-2.34-2.06-4.92-4.12-8-4.36-6.78-.53-11.53,7.56-13.77,14.65C53,508.38,63.42,549.79,75.37,587.44q10.89,34.29,23.39,67.87c2.19,5.9,4.44,11.83,5.52,18.13,4,23.32-8.23,46.64-13.09,70.2-.45,2.14-.77,4.6.45,6.28a5.53,5.53,0,0,0,3.74,1.89c7.26,1.14,14.5-3.11,20.69-7.79a141.33,141.33,0,0,0,41.51-50.9c2.12-4.38,4.08-9.06,4.11-13.92.07-11.75-10.44-19.29-16.58-28.69-4.81-7.36-7.05-16.35-9.08-25.19a910.28,910.28,0,0,1-18.9-117c-.53-5.55-1.67-12.1-6.44-14.08"/><path class="cls-2" d="M116.53,494.83A133,133,0,0,0,98,468.24a101.11,101.11,0,0,0-11.48-11.19c-3.65-2.95-8-4.67-12.51-2.5-3.85,1.87-6.46,5.86-8.24,9.6a70.58,70.58,0,0,0-4.7,15.26,134.5,134.5,0,0,0-2.69,34.27c1,23.45,6.94,46.4,13.85,68.72,7.29,23.56,15.33,46.9,23.88,70a174,174,0,0,1,5.8,17,56.51,56.51,0,0,1,1.59,16.94c-.59,11.42-4,22.49-7.3,33.36-1.69,5.54-3.41,11.08-4.86,16.69a79.75,79.75,0,0,0-1.84,8.21c-.35,2.29-.33,4.87,1.37,6.66s4.24,2.12,6.5,2.18a20.84,20.84,0,0,0,7.73-1.37c5.16-1.89,9.66-5.14,14-8.51a142.27,142.27,0,0,0,39.06-48.17c2.5-5,5-10.29,5.08-16a23.62,23.62,0,0,0-3.69-12.61,87.06,87.06,0,0,0-8.27-10.78,54.2,54.2,0,0,1-8-12.12,87.29,87.29,0,0,1-5.05-16c-1.4-5.87-2.69-11.77-3.94-17.68q-3.84-18.07-6.93-36.28-3.1-18.36-5.47-36.82-1.18-9.21-2.17-18.44c-.57-5.37-.74-10.91-1.89-16.2-.83-3.82-2.56-7.89-6.34-9.57-1.75-.78-3.28,1.8-1.51,2.59,3.89,1.73,4.86,6.46,5.4,10.28.79,5.52,1.14,11.11,1.75,16.65q2,17.63,4.6,35.17,5.24,34.89,13.19,69.31c2.33,10,5.24,19.78,11.65,28,5.1,6.57,12.27,12.92,13.49,21.59.79,5.53-1.37,10.87-3.74,15.75A143.76,143.76,0,0,1,149,705.62a141,141,0,0,1-18.69,23.87,138,138,0,0,1-10.9,10,64,64,0,0,1-13.05,8.85,20.84,20.84,0,0,1-7.73,2.1c-2.16.1-5.6.06-6.2-2.56-.55-2.37.51-5.26,1.06-7.55.64-2.71,1.36-5.41,2.12-8.09,5.85-20.6,14.74-41.95,9.22-63.63a166.28,166.28,0,0,0-5.6-16.47q-3.09-8.32-6.07-16.71-6-16.9-11.63-34c-7.1-21.6-14.1-43.39-17.79-65.88-3.59-21.87-4.06-45.34,3.27-66.54,1.35-3.91,3.38-8.14,6.68-10.77a7.51,7.51,0,0,1,5.14-1.8c2.61.17,4.84,2,6.74,3.61A122.37,122.37,0,0,1,106,483.2a134,134,0,0,1,8,13.15c.9,1.7,3.49.19,2.59-1.52Z"/><path class="cls-2" d="M160.83,671.7c-9.52,4.92-11.54,18.27-16.6,28.31-10.14,20.15-33.64,27.61-47.88,44.71-4.33,5.2-7.86,11.36-13.18,15.33-4.4,3.28-9.87,4.92-13.51,9.18-7.31,8.53-2.46,23.37,7,28s20.83,1.67,30.51-3.23c22-11.17,39.89-32.37,48-57.11,1.45-4.38,2.88-9.26,6.52-11.79,2.15-1.49,4.76-1.89,7.06-3.07,6.5-3.32,9.27-12.29,8.11-19.79s-5.3-13.85-9.35-19.94L160,671.06"/><path class="cls-3" d="M139.16,454.27a145.82,145.82,0,0,0-41.52-29.11c-3.17-1.48-6.61-2.87-10.06-2.31-7.63,1.23-10.57,10.62-11,18.34-2.48,42.19,20.88,81.19,44.81,116q21.78,31.72,45.16,62.3c4.1,5.38,8.27,10.76,11.26,16.83,11.08,22.45,4.22,49.15,5.57,74.15.12,2.28.46,4.84,2.29,6.21a6.71,6.71,0,0,0,4.66.93c8.35-.74,15.12-6.91,20.61-13.23a141.72,141.72,0,0,0,31.28-62.11c1.1-5,1.92-10.19.57-15.09-3.27-11.86-17-16.72-26.47-24.59-7.4-6.17-12.45-14.65-17.2-23a906.23,906.23,0,0,1-54.21-112.93c-2.17-5.45-5.29-11.76-11.12-12.51"/><path class="cls-2" d="M140.22,453.21a148.59,148.59,0,0,0-28.33-22.16,120.42,120.42,0,0,0-15.78-8.2c-4.84-2-10.12-2.42-14.34,1.12-3.39,2.86-5.12,7.41-6,11.64A68.19,68.19,0,0,0,75,451.88a128.87,128.87,0,0,0,6.5,34.51c7.56,23.12,20.2,44.23,33.68,64.33,14.89,22.22,30.61,43.9,46.77,65.21,3.84,5.06,7.87,10,11.29,15.38A56.53,56.53,0,0,1,180.43,648c2.91,11.58,2.47,23.71,1.92,35.54-.28,6.1-.63,12.2-.67,18.31,0,2.89,0,5.78.18,8.67.13,2.35.45,5,2.14,6.74,3.59,3.8,10.53,1.5,14.49-.45,4.95-2.44,9.08-6.36,12.72-10.44a142.49,142.49,0,0,0,31.94-61.47c1.42-6,2.75-12.4,1-18.45a24.43,24.43,0,0,0-7.35-11c-7.35-6.64-16.71-10.54-23.54-17.83a81,81,0,0,1-10.33-14.46c-3.22-5.45-6.28-11-9.32-16.55q-9.47-17.31-18.19-35t-16.66-35.76q-4-9.18-7.86-18.44c-2.25-5.44-4.11-11.2-6.89-16.4-2.08-3.89-5.2-7.61-9.8-8.31-1.89-.29-2.7,2.6-.79,2.89,4.74.72,7.29,5.17,9.1,9.19,2.49,5.5,4.55,11.22,6.88,16.79q7.3,17.47,15.32,34.65c10.67,22.84,22.2,45.36,34.86,67.16a99,99,0,0,0,9.43,14,55.67,55.67,0,0,0,11.42,10.19c7.14,4.89,16.23,9.25,20,17.52,2.51,5.5,1.52,11.66.24,17.34a139.21,139.21,0,0,1-4.71,16.26A140.35,140.35,0,0,1,220.77,689a136.13,136.13,0,0,1-10.26,13.61c-3.47,4.06-7.26,8-11.92,10.74-3.23,1.88-11.79,5.59-13.34,0-.69-2.51-.53-5.36-.56-7.94,0-2.91,0-5.82.09-8.73.35-11.61,1.45-23.23.71-34.85s-3.57-22.5-9.84-32.25c-3.34-5.19-7.23-10-11-14.93Q158.78,606.87,153,599q-11.61-15.71-22.8-31.7c-13.72-19.6-27.36-39.48-37.59-61.19A163.67,163.67,0,0,1,81,473.42c-2.53-10.92-3.89-22.54-2.78-33.74.41-4.17,1.52-8.8,4.24-12.1a9,9,0,0,1,4.84-3.14c2.95-.7,6,.39,8.67,1.58a138.22,138.22,0,0,1,29.63,18.12,149.5,149.5,0,0,1,12.54,11.19,1.5,1.5,0,0,0,2.12-2.12Z"/><path class="cls-2" d="M239.69,619.86c-9.1,7.44-7.53,21.42-10.24,32.85-5.45,22.94-29.25,36.58-40.09,57.52-3.29,6.38-5.43,13.5-10.17,18.88-3.92,4.46-9.49,7.54-12.29,12.77-5.63,10.5,3.95,24.2,15.66,26.43s23.46-3.74,32.75-11.2A100.35,100.35,0,0,0,252,687.05c.34-4.79.53-10.08,3.83-13.58,1.95-2.06,4.71-3.15,6.91-4.93,6.23-5,6.73-14.8,3.31-22s-9.8-12.58-16-17.67l-11.45-9.4"/><path class="cls-2" d="M273.79,580.35c-3.87-11.25-13.51-19.3-21.5-28.12-23.87-26.35-34.29-61.8-50.21-93.6-5.91-11.81-12.63-23.19-19.34-34.56l-20-33.91c-8.72-14.77-17.93-30.06-32.28-39.46-19.48-12.77-45.95-12-66.66-1.36s-36,30-45.38,51.36S5,445.31,2.5,468.47C.23,489.19-.93,510.11.91,530.87c4.59,52,27.8,101.35,29.68,153.53A156.29,156.29,0,0,1,190,595.12a9.1,9.1,0,0,1,4.24,1.24c1.46,1,2.19,2.79,3.2,4.28,4.82,7.15,15.23,7.36,23.7,5.69,9.69-1.91,20.59-5,28.76.5,7.26,4.92,9.09,14.56,11.62,23s8.19,17.69,17,17.65c4.12,0,7.91-2.22,11.24-4.65,18.51-13.5,28.86-35.24,38.12-56.19,2.74-6.22,5.43-13.58,2.09-19.5-3.79-6.72-13.49-7.57-20.64-4.68s-12.88,8.43-19.62,12.18-15.8,5.38-21.76.49"/><path class="cls-4" d="M177,48.42a135.56,135.56,0,0,0,8.83,59.3l.63-.82"/><path class="cls-5" d="M175.53,48.42a137.55,137.55,0,0,0,4.59,46.79c1.21,4.37,2.65,8.68,4.29,12.91a1.52,1.52,0,0,0,2.74.36l.63-.83c1.18-1.53-1.43-3-2.59-1.51l-.63.83,2.74.36a135.54,135.54,0,0,1-9.12-45.53c-.1-4.46,0-8.93.35-13.38.14-1.92-2.86-1.91-3,0Z"/><path class="cls-4" d="M361.39,192c2.18-9.07,4.37-18.47,2.73-27.65a68.1,68.1,0,0,0-4.41-13.5c-4.09-10.08-8.26-20.29-14.88-28.91"/><path class="cls-5" d="M362.83,192.36c2.41-10,4.75-20.44,2.27-30.69A98.3,98.3,0,0,0,360.16,148c-1.81-4.42-3.65-8.82-5.74-13.11a82.65,82.65,0,0,0-8.29-13.71c-1.16-1.52-3.76,0-2.59,1.51,5.59,7.35,9.46,15.77,13,24.27,1.78,4.32,3.67,8.64,5,13.11a39.75,39.75,0,0,1,1.52,14.55,106.57,106.57,0,0,1-3.12,17c-.45,1.88,2.44,2.68,2.89.8Z"/><path class="cls-4" d="M144.88,38.5a74.49,74.49,0,0,0-18.39,49.8"/><path class="cls-5" d="M143.82,37.44a76.2,76.2,0,0,0-18,38.69A77.4,77.4,0,0,0,125,88.3c0,1.93,3,1.93,3,0a73.23,73.23,0,0,1,18-48.74c1.27-1.44-.84-3.57-2.12-2.12Z"/><path class="cls-2" d="M163.39,185.24A138.79,138.79,0,0,0,184.45,187l-1.44-1.9a9.82,9.82,0,0,1-9.71,6.46,8.11,8.11,0,0,1-6-3.23c-1.74-2.25-3.19-4.78-4.75-7.16-1-1.61-3.65-.11-2.59,1.51,1.85,2.83,3.53,6,5.85,8.52a11.14,11.14,0,0,0,7.79,3.38,12.89,12.89,0,0,0,12.25-8.68,1.51,1.51,0,0,0-1.45-1.9,134.75,134.75,0,0,1-20.26-1.6c-1.89-.3-2.7,2.59-.8,2.89Z"/><path class="cls-2" d="M198,155.45l.71,3.44a1.57,1.57,0,0,0,.69.89,1.52,1.52,0,0,0,1.16.15,1.49,1.49,0,0,0,.89-.68,1.61,1.61,0,0,0,.15-1.16l-.71-3.43a1.5,1.5,0,0,0-1.84-1,1.46,1.46,0,0,0-.9.69,1.59,1.59,0,0,0-.15,1.15Z"/><path class="cls-2" d="M205.53,156.15l.73,3.43a1.51,1.51,0,0,0,.69.9,1.5,1.5,0,0,0,2.05-.54,1.67,1.67,0,0,0,.15-1.16l-.72-3.43a1.56,1.56,0,0,0-.69-.9,1.61,1.61,0,0,0-1.16-.15,1.55,1.55,0,0,0-.9.69,1.72,1.72,0,0,0-.15,1.16Z"/><path class="cls-2" d="M213.93,155.18l1.39,2.74a1.54,1.54,0,0,0,.9.68,1.52,1.52,0,0,0,1.16-.15,1.5,1.5,0,0,0,.69-.89,1.67,1.67,0,0,0-.16-1.16l-1.39-2.74a1.59,1.59,0,0,0-.9-.69,1.5,1.5,0,0,0-1.85,1.05,1.68,1.68,0,0,0,.16,1.16Z"/><path class="cls-2" d="M121.65,136.09a17.86,17.86,0,0,1,13.6-2.4c4.91,1.15,9,4.4,12.8,7.5,1.49,1.2,3.62-.91,2.12-2.12-4.34-3.51-8.92-7.18-14.51-8.37a21,21,0,0,0-15.52,2.8c-1.63,1-.12,3.63,1.51,2.59Z"/><path class="cls-2" d="M136.17,132.39c-6,2.77-7.5,12.05-2.64,16.55s14,2.33,16.41-4c1.35-3.49-.45-8.85-4.76-8.84a1.5,1.5,0,0,0,0,3,1.18,1.18,0,0,1,.69.12c-.24-.1.44.29.27.15a3,3,0,0,1,.88,1.18,4.51,4.51,0,0,1,.09,3.44,7.12,7.12,0,0,1-4.89,4.07,7.4,7.4,0,0,1-1.48.27c-.33,0-.66,0-1,0l-.49,0-.25,0a6.32,6.32,0,0,1-3-1.24,6.77,6.77,0,0,1-2.31-6.1,7.25,7.25,0,0,1,4-6,1.51,1.51,0,0,0,.54-2,1.53,1.53,0,0,0-2.05-.54Z"/><path class="cls-2" d="M186.08,136.72a24.72,24.72,0,0,1,20.47-3.11c1.86.54,2.65-2.36.8-2.9a27.67,27.67,0,0,0-22.78,3.42c-1.61,1.06-.11,3.66,1.51,2.59Z"/><path class="cls-2" d="M199,132.4a11.75,11.75,0,0,0-2.17,11.07,10.85,10.85,0,0,0,8.33,7.52,12.06,12.06,0,0,0,11-3.32,9.69,9.69,0,0,0,2.72-6.37,9.82,9.82,0,0,0-2.38-6.23c-3.59-4.4-9.47-5.16-14.76-5.72a1.51,1.51,0,0,0-1.5,1.5,1.53,1.53,0,0,0,1.5,1.5c3.79.4,8.12.8,11.16,3.34a8.2,8.2,0,0,1,2.76,4,6,6,0,0,1-1,5.05c-3.5,5.1-12,4.49-14.6-1.16a8.76,8.76,0,0,1,1.06-9.05c1.25-1.47-.86-3.6-2.12-2.13Z"/><path class="cls-2" d="M132.08,118.28c.3-.17.62-.32.94-.47.1,0,.09,0,0,0l.26-.1.54-.19c.31-.1.63-.18,1-.25l.42-.09c.05,0,.62-.09.3,0a11.76,11.76,0,0,1,2-.06l.56,0c.37,0-.16,0,.17,0s.73.15,1.1.25a1.5,1.5,0,0,0,.8-2.9,12.79,12.79,0,0,0-9.5,1.19,1.5,1.5,0,1,0,1.52,2.59Z"/><path class="cls-2" d="M206.41,116.33c.65.39,1.29.79,1.92,1.22l.95.68.47.35c.11.08.12.09,0,0l.25.2a37.23,37.23,0,0,1,3.43,3.09,1.5,1.5,0,1,0,2.12-2.13,38.17,38.17,0,0,0-7.63-6,1.52,1.52,0,0,0-2.06.53,1.54,1.54,0,0,0,.54,2.06Z"/><path class="cls-2" d="M128,155.61a7.39,7.39,0,0,0-.72,5.31,1.51,1.51,0,0,0,1.85,1.05,1.53,1.53,0,0,0,1-1.84,4.62,4.62,0,0,1-.11-.63l.05.4a6,6,0,0,1,0-1.47l-.05.4a5.86,5.86,0,0,1,.4-1.49l-.15.36a5,5,0,0,1,.28-.57,1.5,1.5,0,0,0-2.59-1.52Z"/><path class="cls-2" d="M129.37,157.91a1.5,1.5,0,0,0,0-3,1.5,1.5,0,0,0,0,3Z"/><path class="cls-2" d="M136.82,155.72v5.51a1.5,1.5,0,0,0,3,0v-5.51a1.5,1.5,0,1,0-3,0Z"/><path class="cls-2" d="M143.76,157.24l1.4,2.74a1.54,1.54,0,0,0,.89.69,1.5,1.5,0,0,0,1.85-1,1.67,1.67,0,0,0-.15-1.16l-1.4-2.74a1.51,1.51,0,0,0-2-.53,1.5,1.5,0,0,0-.69.89,1.67,1.67,0,0,0,.15,1.16Z"/><path class="cls-2" d="M159.27,162.29,162,165a1.56,1.56,0,0,0,1.06.44,1.54,1.54,0,0,0,1.06-.44,1.52,1.52,0,0,0,.44-1.06,1.54,1.54,0,0,0-.44-1.06l-2.75-2.76a1.55,1.55,0,0,0-1.06-.43,1.49,1.49,0,0,0-1.5,1.5,1.58,1.58,0,0,0,.44,1.06Z"/></g></g></svg>