<svg xmlns="http://www.w3.org/2000/svg" xmlns:xlink="http://www.w3.org/1999/xlink" viewBox="0 0 2368.25 829.29"><defs><style>.cls-1{fill:#f24162;}.cls-2{fill:url(#未命名漸層_76);}</style><linearGradient id="未命名漸層_76" y1="414.65" x2="2368.25" y2="414.65" gradientUnits="userSpaceOnUse"><stop offset="0" stop-color="#f2949c"/><stop offset="0.23" stop-color="#b6d7c3"/><stop offset="0.57" stop-color="#e5a3a5"/></linearGradient></defs><title>資產 2</title><g id="圖層_2" data-name="圖層 2"><g id="圖層_10" data-name="圖層 10"><path class="cls-1" d="M676.45,111.7c-6.62-3.85-11.28-9.17-9.69-14.65,1.82-6.31,11.46-11.82,9.58-18.06-1.7-5.66-12-8.52-21.27-9.65-53.23-6.49-112,14.8-161.83,2.07C483.88,69,475.29,65.49,465.42,64c-11.2-1.7-23.12-.63-34.53.85A445.62,445.62,0,0,0,370.38,77c-11.66,3.21-23.42,7.09-31,13.37-7.18,5.92-9.86,13.32-12.35,20.46-4.83,13.8-8.53,30.16,7.68,39.92,12.09,7.29,32.27,8.54,42.57,16.79-25.05,6.14-53.56,14.65-59.32,30.63-4.42,12.28,7.65,24.93,25,31.39s38.85,7.71,59.44,7c13.87-.51,27.78-1.86,41.57-1.15s27.92,3.84,36.05,10.54c4,3.32,6.36,7.77,3.9,11.7-1.38,2.19-4.1,4-7.06,5.54C448.8,277.68,405.74,269.6,371.07,277c-5,1.07-10.13,2.62-12.95,5.36-4.76,4.64-.8,11,6.3,14.14s16.35,3.85,25.2,4.29c40.94,2,82.24.3,123.41-.73,8.62-.22,17.38-.4,25.67.91,9.66,1.52,18.31,5.1,24.18,9.94a742.45,742.45,0,0,0,82.24-1.06c15.53-1.06,32.76-3.23,42-11,9.66-8.17,6.23-20-4.34-27.45s-26.6-11.15-42.52-13.22c-11.11-1.44-23.68-2.64-30.24-8.22-7.9-6.72-2.27-17,8.85-22.11s25.8-6.1,39.54-5.83c37.48.74,75.68,9.33,111.5,1.94,18.78-3.88,37-16.18,28.54-26.86-9.07-11.48-36.91-9-56.55-13.55,61.78-19.47,136-3,204.29-9.4,21.58-2,43.69-6.83,58.24-16.88s18.86-26.3,5.13-36.34c-14.65-10.71-41.57-10.45-64.76-9.31l-189.28,9.3c-26.25,1.29-55.13,2.15-75.7-7.47Q678.06,112.63,676.45,111.7Z"/><path class="cls-2" d="M4.25,658.85A3516.81,3516.81,0,0,1,132.13,122C142,91.29,153,59.67,175.46,36.57,205.94,5.21,253.69-5,296.83,2.2s82.28,29.67,117.29,55.87C559.56,166.93,645.48,340.62,789.78,451c19.12,14.63,40,28.4,63.82,32.17,26.91,4.26,54.14-4.84,78.81-16.42,98.36-46.18,172.08-131,244.47-212S1327.22,91.41,1429,53.41s234-17.22,291.37,75.05c11.25,18.07,19.72,38.69,36.2,52.17,34.58,28.28,87.14,12.67,124.29-12.13s71.25-58.46,115.34-65.66c40.12-6.56,81.28,11,111.61,38.11s51.52,62.73,70.85,98.49c73.86,136.64,127.69,283,181.27,428.8,11,29.92,15.44,74.32-15.12,83.41-14,4.17-28.67-2.47-42.16-8.11-80.85-33.77-171.3-35.08-258.79-30.47-215.62,11.36-428,55.42-642.19,82.77A4168.53,4168.53,0,0,1,169.15,769.15C135.27,763.32,101.26,757,69,745.09c-21.54-8-42.94-19.05-56.62-37.49s-17.54-45.72-3.88-64.18"/></g></g></svg>