<svg xmlns="http://www.w3.org/2000/svg" xmlns:xlink="http://www.w3.org/1999/xlink" viewBox="0 0 148.09 93.11"><defs><style>.cls-1{fill:url(#未命名漸層_27);}.cls-2{fill:#fff;}</style><linearGradient id="未命名漸層_27" x1="74.05" x2="74.05" y2="93.11" gradientUnits="userSpaceOnUse"><stop offset="0" stop-color="#f2a007"/><stop offset="0" stop-color="#f29f08"/><stop offset="0.25" stop-color="#f27835"/><stop offset="0.47" stop-color="#f25c57"/><stop offset="0.65" stop-color="#f24a6b"/><stop offset="0.77" stop-color="#f24472"/><stop offset="0.82" stop-color="#f24e77"/><stop offset="0.9" stop-color="#f26885"/><stop offset="1" stop-color="#f2929b"/><stop offset="1" stop-color="#f2949c"/></linearGradient></defs><title>資產 13</title><g id="圖層_2" data-name="圖層 2"><g id="圖層_3_拷貝" data-name="圖層 3 拷貝"><path class="cls-1" d="M77,55.21l71.05-28.34V12a12,12,0,0,0-12-12H12A12,12,0,0,0,0,12V26.83L71.47,55.21A7.55,7.55,0,0,0,77,55.21Z"/><path class="cls-1" d="M77,55.21l71.05-28.34V12a12,12,0,0,0-12-12H12A12,12,0,0,0,0,12V26.83L71.47,55.21A7.55,7.55,0,0,0,77,55.21Z"/><path class="cls-1" d="M77.41,56.13a8.46,8.46,0,0,1-3.16.61,8.6,8.6,0,0,1-3.15-.6L0,27.9V81.11a12,12,0,0,0,12,12H136.09a12,12,0,0,0,12-12V28Z"/><path class="cls-1" d="M77.41,56.13a8.46,8.46,0,0,1-3.16.61,8.6,8.6,0,0,1-3.15-.6L0,27.9V81.11a12,12,0,0,0,12,12H136.09a12,12,0,0,0,12-12V28Z"/><path class="cls-2" d="M74.25,56.74a8.46,8.46,0,0,0,3.16-.61L148.09,28V26.87L77,55.21a7.55,7.55,0,0,1-5.57,0L0,26.83V27.9L71.1,56.14A8.6,8.6,0,0,0,74.25,56.74Z"/></g></g></svg>