<svg xmlns="http://www.w3.org/2000/svg" viewBox="0 0 122 208.81"><defs><style>.cls-1{opacity:0.86;}.cls-2{fill:#f24472;}.cls-3{fill:none;stroke:#f24472;stroke-linejoin:round;stroke-width:8px;}</style></defs><title>資產 2</title><g id="圖層_2" data-name="圖層 2"><g id="圖層_1-2" data-name="圖層 1"><g class="cls-1"><path class="cls-2" d="M59.56,77.8q1.14,0,2.28,0c16,.33,29.26,4,38.3,10.7,9.47,7,14.12,17.21,13.85,30.4-.33,15.62-7.26,36.56-17.67,53.36-11.23,18.12-24.57,28.52-36.6,28.52h-.45C31.94,200.23,7.36,147.93,8,116.71,8.28,103.83,13.14,94,22.45,87.38c8.88-6.26,21.71-9.58,37.11-9.58m0-8C27,69.8.7,83.68,0,116.54c-.7,33.69,25.41,91.56,59.09,92.26h.62c33.41,0,61.57-56.24,62.27-89.72.7-33.68-26.3-48.56-60-49.26-.81,0-1.63,0-2.44,0Z"/></g><path class="cls-3" d="M62.31,69.36s-14.82-37-41-36.6C30.93,46.27,47.49,70.67,62.31,69.36Z"/><path class="cls-3" d="M60.52,73.42S89.15,31.89,70.25,4C62.76,23.66,48.69,58.35,60.52,73.42Z"/><path class="cls-3" d="M61.33,67.86s38-12.24,39.32-38.35C86.52,38.15,61,53,61.33,67.86Z"/><path class="cls-2" d="M34.68,132.81a9.86,9.86,0,0,1-19.62-1.89c.52-5.42,11.32-14.73,11.32-14.73S35.2,127.39,34.68,132.81Z"/><path class="cls-2" d="M90.83,132.81a9.86,9.86,0,0,0,19.62-1.89c-.52-5.42-11.32-14.73-11.32-14.73S90.31,127.39,90.83,132.81Z"/><path class="cls-2" d="M70.85,151.72a9.86,9.86,0,0,1-19.71,0C51.14,146.28,61,136,61,136S70.85,146.28,70.85,151.72Z"/></g></g></svg>